<mxfile host="app.diagrams.net" modified="2024-05-21T14:39:10.848Z" agent="Mozilla/5.0 (Macintosh; Intel Mac OS X 10_15_7) AppleWebKit/537.36 (KHTML, like Gecko) Chrome/123.0.0.0 Safari/537.36" etag="H19KHD7Z3Nu9zh__OGO6" version="24.4.4" type="device">
  <diagram name="Page-1" id="2a216829-ef6e-dabb-86c1-c78162f3ba2b">
    <mxGraphModel dx="369" dy="211" grid="1" gridSize="10" guides="1" tooltips="1" connect="1" arrows="1" fold="1" page="1" pageScale="1" pageWidth="850" pageHeight="1100" background="none" math="0" shadow="0">
      <root>
        <mxCell id="0" />
        <mxCell id="1" parent="0" />
        <mxCell id="3Hoj-GgrHt7AFL5flP2V-2" value="" style="swimlane;html=1;startSize=20;fontStyle=0;collapsible=0;horizontal=1;swimlaneLine=0;fillColor=none;whiteSpace=wrap;fontSize=15;fontFamily=Garamond;" vertex="1" parent="1">
          <mxGeometry x="370" y="100" width="910" height="80" as="geometry" />
        </mxCell>
        <mxCell id="3Hoj-GgrHt7AFL5flP2V-3" value="&lt;font style=&quot;font-size: 15px;&quot;&gt;Domain&amp;nbsp;&lt;/font&gt;&lt;div&gt;&lt;font style=&quot;font-size: 15px;&quot;&gt;Expert&lt;/font&gt;&lt;/div&gt;" style="text;html=1;align=center;verticalAlign=middle;resizable=0;points=[];autosize=1;strokeColor=none;fillColor=none;rotation=-90;fontSize=15;fontFamily=Garamond;fontStyle=0" vertex="1" parent="3Hoj-GgrHt7AFL5flP2V-2">
          <mxGeometry x="-10" y="15" width="80" height="50" as="geometry" />
        </mxCell>
        <mxCell id="3Hoj-GgrHt7AFL5flP2V-4" value="&lt;font style=&quot;font-size: 15px;&quot;&gt;Composition Generation Process&lt;/font&gt;" style="swimlane;childLayout=stackLayout;resizeParent=1;resizeParentMax=0;horizontal=0;startSize=20;horizontalStack=0;html=1;fontFamily=Garamond;fontStyle=0;fontSize=15;" vertex="1" parent="1">
          <mxGeometry x="370" y="210" width="910" height="400" as="geometry">
            <mxRectangle x="370" y="210" width="40" height="220" as="alternateBounds" />
          </mxGeometry>
        </mxCell>
        <mxCell id="3Hoj-GgrHt7AFL5flP2V-5" value="DisCo" style="swimlane;startSize=20;horizontal=0;html=1;fontFamily=Garamond;fontStyle=0;fontSize=15;" vertex="1" parent="3Hoj-GgrHt7AFL5flP2V-4">
          <mxGeometry x="20" width="890" height="120" as="geometry" />
        </mxCell>
        <mxCell id="3Hoj-GgrHt7AFL5flP2V-10" value="Parse the domain expert&#39;s query" style="shape=ext;rounded=1;html=1;whiteSpace=wrap;fontSize=15;fontFamily=Garamond;fontStyle=0" vertex="1" parent="3Hoj-GgrHt7AFL5flP2V-5">
          <mxGeometry x="150" y="16" width="120" height="80" as="geometry" />
        </mxCell>
        <mxCell id="3Hoj-GgrHt7AFL5flP2V-18" style="edgeStyle=orthogonalEdgeStyle;rounded=0;orthogonalLoop=1;jettySize=auto;html=1;entryX=0;entryY=0.5;entryDx=0;entryDy=0;" edge="1" parent="3Hoj-GgrHt7AFL5flP2V-5" source="3Hoj-GgrHt7AFL5flP2V-11" target="3Hoj-GgrHt7AFL5flP2V-17">
          <mxGeometry relative="1" as="geometry" />
        </mxCell>
        <mxCell id="3Hoj-GgrHt7AFL5flP2V-11" value="Identify the target domain" style="shape=ext;rounded=1;html=1;whiteSpace=wrap;fontSize=15;fontFamily=Garamond;fontStyle=0" vertex="1" parent="3Hoj-GgrHt7AFL5flP2V-5">
          <mxGeometry x="310" y="16" width="120" height="80" as="geometry" />
        </mxCell>
        <mxCell id="3Hoj-GgrHt7AFL5flP2V-12" style="edgeStyle=orthogonalEdgeStyle;rounded=0;html=1;jettySize=auto;orthogonalLoop=1;fontSize=15;fontFamily=Garamond;fontStyle=0;entryX=-0.001;entryY=0.601;entryDx=0;entryDy=0;entryPerimeter=0;" edge="1" parent="3Hoj-GgrHt7AFL5flP2V-5" target="3Hoj-GgrHt7AFL5flP2V-10">
          <mxGeometry relative="1" as="geometry">
            <mxPoint x="96.99999344644743" y="64.23076923076917" as="sourcePoint" />
          </mxGeometry>
        </mxCell>
        <mxCell id="3Hoj-GgrHt7AFL5flP2V-13" style="edgeStyle=orthogonalEdgeStyle;rounded=0;html=1;jettySize=auto;orthogonalLoop=1;fontSize=15;fontFamily=Garamond;fontStyle=0" edge="1" parent="3Hoj-GgrHt7AFL5flP2V-5" source="3Hoj-GgrHt7AFL5flP2V-10" target="3Hoj-GgrHt7AFL5flP2V-11">
          <mxGeometry relative="1" as="geometry" />
        </mxCell>
        <mxCell id="3Hoj-GgrHt7AFL5flP2V-17" value="Selects the candidate components&amp;nbsp;" style="shape=ext;rounded=1;html=1;whiteSpace=wrap;fontSize=15;fontFamily=Garamond;fontStyle=0" vertex="1" parent="3Hoj-GgrHt7AFL5flP2V-5">
          <mxGeometry x="470" y="16" width="120" height="80" as="geometry" />
        </mxCell>
        <mxCell id="3Hoj-GgrHt7AFL5flP2V-22" style="edgeStyle=orthogonalEdgeStyle;rounded=0;orthogonalLoop=1;jettySize=auto;html=1;entryX=0;entryY=0.5;entryDx=0;entryDy=0;exitX=1;exitY=0.567;exitDx=0;exitDy=0;exitPerimeter=0;dashed=1;dashPattern=1 4;endArrow=open;endFill=0;" edge="1" parent="3Hoj-GgrHt7AFL5flP2V-5" source="3Hoj-GgrHt7AFL5flP2V-19" target="3Hoj-GgrHt7AFL5flP2V-21">
          <mxGeometry relative="1" as="geometry">
            <mxPoint x="660" y="56" as="sourcePoint" />
          </mxGeometry>
        </mxCell>
        <mxCell id="3Hoj-GgrHt7AFL5flP2V-19" value="&lt;font style=&quot;font-size: 14px;&quot; face=&quot;Garamond&quot;&gt;candidate components&lt;/font&gt;" style="shape=mxgraph.bpmn.data;labelPosition=center;verticalLabelPosition=bottom;align=center;verticalAlign=top;size=15;html=1;bpmnTransferType=none;isCollection=1;" vertex="1" parent="3Hoj-GgrHt7AFL5flP2V-5">
          <mxGeometry x="630" y="26" width="40" height="60" as="geometry" />
        </mxCell>
        <mxCell id="3Hoj-GgrHt7AFL5flP2V-20" style="edgeStyle=orthogonalEdgeStyle;rounded=0;orthogonalLoop=1;jettySize=auto;html=1;exitX=1;exitY=0.5;exitDx=0;exitDy=0;entryX=0;entryY=0.5;entryDx=0;entryDy=0;entryPerimeter=0;dashed=1;dashPattern=1 4;endArrow=open;endFill=0;" edge="1" parent="3Hoj-GgrHt7AFL5flP2V-5" source="3Hoj-GgrHt7AFL5flP2V-17" target="3Hoj-GgrHt7AFL5flP2V-19">
          <mxGeometry relative="1" as="geometry" />
        </mxCell>
        <mxCell id="3Hoj-GgrHt7AFL5flP2V-21" value="Generate the component&#39;s Communication Configuration&amp;nbsp;" style="shape=ext;rounded=1;html=1;whiteSpace=wrap;fontSize=15;fontFamily=Garamond;fontStyle=0" vertex="1" parent="3Hoj-GgrHt7AFL5flP2V-5">
          <mxGeometry x="710" y="20" width="120" height="80" as="geometry" />
        </mxCell>
        <mxCell id="3Hoj-GgrHt7AFL5flP2V-40" value="" style="strokeWidth=2;html=1;shape=mxgraph.flowchart.start_2;whiteSpace=wrap;" vertex="1" parent="3Hoj-GgrHt7AFL5flP2V-5">
          <mxGeometry x="50" y="46" width="50" height="50" as="geometry" />
        </mxCell>
        <mxCell id="3Hoj-GgrHt7AFL5flP2V-6" value="Composition Engine" style="swimlane;startSize=20;horizontal=0;html=1;fontFamily=Garamond;fontStyle=0;fontSize=15;" vertex="1" parent="3Hoj-GgrHt7AFL5flP2V-4">
          <mxGeometry x="20" y="120" width="890" height="140" as="geometry" />
        </mxCell>
        <mxCell id="3Hoj-GgrHt7AFL5flP2V-28" style="edgeStyle=orthogonalEdgeStyle;rounded=0;orthogonalLoop=1;jettySize=auto;html=1;dashed=1;dashPattern=1 4;endArrow=open;endFill=0;" edge="1" parent="3Hoj-GgrHt7AFL5flP2V-6" source="3Hoj-GgrHt7AFL5flP2V-23" target="3Hoj-GgrHt7AFL5flP2V-25">
          <mxGeometry relative="1" as="geometry">
            <Array as="points">
              <mxPoint x="124" y="70" />
              <mxPoint x="124" y="70" />
            </Array>
          </mxGeometry>
        </mxCell>
        <mxCell id="3Hoj-GgrHt7AFL5flP2V-23" value="&lt;font face=&quot;Garamond&quot;&gt;&lt;span style=&quot;font-size: 15px;&quot;&gt;Communication&amp;nbsp;&lt;/span&gt;&lt;/font&gt;&lt;div&gt;&lt;font face=&quot;Garamond&quot;&gt;&lt;span style=&quot;font-size: 15px;&quot;&gt;Configuration&lt;/span&gt;&lt;/font&gt;&lt;br&gt;&lt;/div&gt;" style="shape=mxgraph.bpmn.data;labelPosition=center;verticalLabelPosition=bottom;align=center;verticalAlign=top;size=15;html=1;" vertex="1" parent="3Hoj-GgrHt7AFL5flP2V-6">
          <mxGeometry x="69" y="36" width="40" height="60" as="geometry" />
        </mxCell>
        <mxCell id="3Hoj-GgrHt7AFL5flP2V-27" style="edgeStyle=orthogonalEdgeStyle;rounded=0;orthogonalLoop=1;jettySize=auto;html=1;exitX=1;exitY=0.5;exitDx=0;exitDy=0;dashed=1;dashPattern=1 4;endArrow=open;endFill=0;" edge="1" parent="3Hoj-GgrHt7AFL5flP2V-6" source="3Hoj-GgrHt7AFL5flP2V-25" target="3Hoj-GgrHt7AFL5flP2V-26">
          <mxGeometry relative="1" as="geometry" />
        </mxCell>
        <mxCell id="3Hoj-GgrHt7AFL5flP2V-25" value="Generate the comopstion model&amp;nbsp;" style="shape=ext;rounded=1;html=1;whiteSpace=wrap;fontSize=15;fontFamily=Garamond;fontStyle=0" vertex="1" parent="3Hoj-GgrHt7AFL5flP2V-6">
          <mxGeometry x="150" y="34" width="120" height="80" as="geometry" />
        </mxCell>
        <mxCell id="3Hoj-GgrHt7AFL5flP2V-26" value="&lt;div&gt;&lt;font face=&quot;Garamond&quot;&gt;&lt;span style=&quot;font-size: 15px;&quot;&gt;Composition Model&lt;/span&gt;&lt;/font&gt;&lt;/div&gt;" style="shape=mxgraph.bpmn.data;labelPosition=center;verticalLabelPosition=bottom;align=center;verticalAlign=top;size=15;html=1;" vertex="1" parent="3Hoj-GgrHt7AFL5flP2V-6">
          <mxGeometry x="364" y="44" width="40" height="60" as="geometry" />
        </mxCell>
        <mxCell id="3Hoj-GgrHt7AFL5flP2V-39" style="edgeStyle=orthogonalEdgeStyle;rounded=0;orthogonalLoop=1;jettySize=auto;html=1;exitX=1;exitY=0.75;exitDx=0;exitDy=0;exitPerimeter=0;entryX=0;entryY=0.5;entryDx=0;entryDy=0;" edge="1" parent="3Hoj-GgrHt7AFL5flP2V-6" source="3Hoj-GgrHt7AFL5flP2V-35" target="7a84cebc1def654-26">
          <mxGeometry relative="1" as="geometry" />
        </mxCell>
        <mxCell id="3Hoj-GgrHt7AFL5flP2V-35" value="&lt;font style=&quot;font-size: 15px;&quot; face=&quot;Garamond&quot;&gt;Send completion notification&lt;/font&gt;" style="points=[[0.25,0,0],[0.5,0,0],[0.75,0,0],[1,0.25,0],[1,0.5,0],[1,0.75,0],[0.75,1,0],[0.5,1,0],[0.25,1,0],[0,0.75,0],[0,0.5,0],[0,0.25,0]];shape=mxgraph.bpmn.task;whiteSpace=wrap;rectStyle=rounded;size=10;html=1;container=1;expand=0;collapsible=0;taskMarker=send;" vertex="1" parent="3Hoj-GgrHt7AFL5flP2V-6">
          <mxGeometry x="630" y="34" width="120" height="80" as="geometry" />
        </mxCell>
        <mxCell id="7a84cebc1def654-26" value="" style="shape=mxgraph.bpmn.shape;html=1;verticalLabelPosition=bottom;labelBackgroundColor=#ffffff;verticalAlign=top;perimeter=ellipsePerimeter;outline=end;symbol=general;fontSize=15;fontFamily=Garamond;fontStyle=0" parent="3Hoj-GgrHt7AFL5flP2V-6" vertex="1">
          <mxGeometry x="820" y="69" width="50" height="50" as="geometry" />
        </mxCell>
        <mxCell id="3Hoj-GgrHt7AFL5flP2V-7" value="Composition Compiler" style="swimlane;startSize=20;horizontal=0;html=1;fontFamily=Garamond;fontStyle=0;fontSize=15;" vertex="1" parent="3Hoj-GgrHt7AFL5flP2V-4">
          <mxGeometry x="20" y="260" width="890" height="140" as="geometry" />
        </mxCell>
        <mxCell id="3Hoj-GgrHt7AFL5flP2V-32" style="edgeStyle=orthogonalEdgeStyle;rounded=0;orthogonalLoop=1;jettySize=auto;html=1;exitX=1;exitY=0.5;exitDx=0;exitDy=0;entryX=0;entryY=0.5;entryDx=0;entryDy=0;" edge="1" parent="3Hoj-GgrHt7AFL5flP2V-7" source="3Hoj-GgrHt7AFL5flP2V-30" target="3Hoj-GgrHt7AFL5flP2V-31">
          <mxGeometry relative="1" as="geometry" />
        </mxCell>
        <mxCell id="3Hoj-GgrHt7AFL5flP2V-30" value="Generate executable code&amp;nbsp;" style="shape=ext;rounded=1;html=1;whiteSpace=wrap;fontSize=15;fontFamily=Garamond;fontStyle=0" vertex="1" parent="3Hoj-GgrHt7AFL5flP2V-7">
          <mxGeometry x="320" y="35" width="120" height="80" as="geometry" />
        </mxCell>
        <mxCell id="3Hoj-GgrHt7AFL5flP2V-31" value="Deploy final mashup solution&amp;nbsp;" style="shape=ext;rounded=1;html=1;whiteSpace=wrap;fontSize=15;fontFamily=Garamond;fontStyle=0" vertex="1" parent="3Hoj-GgrHt7AFL5flP2V-7">
          <mxGeometry x="480" y="35" width="120" height="80" as="geometry" />
        </mxCell>
        <mxCell id="3Hoj-GgrHt7AFL5flP2V-24" style="edgeStyle=orthogonalEdgeStyle;rounded=0;orthogonalLoop=1;jettySize=auto;html=1;entryX=0;entryY=0;entryDx=12.5;entryDy=0;entryPerimeter=0;dashed=1;dashPattern=1 4;endArrow=open;endFill=0;" edge="1" parent="3Hoj-GgrHt7AFL5flP2V-4" source="3Hoj-GgrHt7AFL5flP2V-21" target="3Hoj-GgrHt7AFL5flP2V-23">
          <mxGeometry relative="1" as="geometry">
            <Array as="points">
              <mxPoint x="790" y="130" />
              <mxPoint x="102" y="130" />
            </Array>
          </mxGeometry>
        </mxCell>
        <mxCell id="3Hoj-GgrHt7AFL5flP2V-29" style="edgeStyle=orthogonalEdgeStyle;rounded=0;orthogonalLoop=1;jettySize=auto;html=1;exitX=1;exitY=0.5;exitDx=0;exitDy=0;entryX=0.5;entryY=0;entryDx=0;entryDy=0;" edge="1" parent="3Hoj-GgrHt7AFL5flP2V-4" source="3Hoj-GgrHt7AFL5flP2V-21" target="3Hoj-GgrHt7AFL5flP2V-25">
          <mxGeometry relative="1" as="geometry">
            <Array as="points">
              <mxPoint x="860" y="60" />
              <mxPoint x="860" y="140" />
              <mxPoint x="230" y="140" />
            </Array>
          </mxGeometry>
        </mxCell>
        <mxCell id="3Hoj-GgrHt7AFL5flP2V-33" style="edgeStyle=orthogonalEdgeStyle;rounded=0;orthogonalLoop=1;jettySize=auto;html=1;exitX=0.5;exitY=1;exitDx=0;exitDy=0;entryX=0;entryY=0.5;entryDx=0;entryDy=0;" edge="1" parent="3Hoj-GgrHt7AFL5flP2V-4" source="3Hoj-GgrHt7AFL5flP2V-25" target="3Hoj-GgrHt7AFL5flP2V-30">
          <mxGeometry relative="1" as="geometry" />
        </mxCell>
        <mxCell id="3Hoj-GgrHt7AFL5flP2V-34" style="edgeStyle=orthogonalEdgeStyle;rounded=0;orthogonalLoop=1;jettySize=auto;html=1;exitX=0.5;exitY=1;exitDx=0;exitDy=0;exitPerimeter=0;entryX=0.5;entryY=0;entryDx=0;entryDy=0;dashed=1;dashPattern=1 4;endArrow=open;endFill=0;" edge="1" parent="3Hoj-GgrHt7AFL5flP2V-4" source="3Hoj-GgrHt7AFL5flP2V-26" target="3Hoj-GgrHt7AFL5flP2V-30">
          <mxGeometry relative="1" as="geometry">
            <Array as="points">
              <mxPoint x="404" y="250" />
              <mxPoint x="400" y="250" />
              <mxPoint x="400" y="295" />
            </Array>
          </mxGeometry>
        </mxCell>
        <mxCell id="3Hoj-GgrHt7AFL5flP2V-36" style="edgeStyle=orthogonalEdgeStyle;rounded=0;orthogonalLoop=1;jettySize=auto;html=1;exitX=1;exitY=0.5;exitDx=0;exitDy=0;entryX=0.5;entryY=1;entryDx=0;entryDy=0;entryPerimeter=0;" edge="1" parent="3Hoj-GgrHt7AFL5flP2V-4" source="3Hoj-GgrHt7AFL5flP2V-31" target="3Hoj-GgrHt7AFL5flP2V-35">
          <mxGeometry relative="1" as="geometry" />
        </mxCell>
        <mxCell id="3Hoj-GgrHt7AFL5flP2V-15" value="" style="dashed=1;dashPattern=8 4;endArrow=blockThin;endFill=1;startArrow=oval;startFill=0;endSize=6;startSize=4;html=1;rounded=0;entryX=0.5;entryY=0;entryDx=0;entryDy=0;entryPerimeter=0;" edge="1" parent="1" target="3Hoj-GgrHt7AFL5flP2V-40">
          <mxGeometry width="160" relative="1" as="geometry">
            <mxPoint x="465" y="182" as="sourcePoint" />
            <mxPoint x="470" y="250" as="targetPoint" />
            <Array as="points" />
          </mxGeometry>
        </mxCell>
        <mxCell id="3Hoj-GgrHt7AFL5flP2V-16" value="&lt;font style=&quot;font-size: 13px;&quot; face=&quot;Garamond&quot;&gt;query&lt;/font&gt;" style="edgeLabel;html=1;align=center;verticalAlign=middle;resizable=0;points=[];" vertex="1" connectable="0" parent="3Hoj-GgrHt7AFL5flP2V-15">
          <mxGeometry x="-0.5469" relative="1" as="geometry">
            <mxPoint x="20" as="offset" />
          </mxGeometry>
        </mxCell>
        <mxCell id="3Hoj-GgrHt7AFL5flP2V-37" value="" style="dashed=1;dashPattern=8 4;endArrow=blockThin;endFill=1;startArrow=oval;startFill=0;endSize=6;startSize=4;html=1;rounded=0;exitX=1;exitY=0.25;exitDx=0;exitDy=0;exitPerimeter=0;" edge="1" parent="1" source="3Hoj-GgrHt7AFL5flP2V-35">
          <mxGeometry width="160" relative="1" as="geometry">
            <mxPoint x="700" y="390" as="sourcePoint" />
            <mxPoint x="1250" y="180" as="targetPoint" />
            <Array as="points">
              <mxPoint x="1250" y="384" />
            </Array>
          </mxGeometry>
        </mxCell>
        <mxCell id="3Hoj-GgrHt7AFL5flP2V-38" value="&lt;font style=&quot;font-size: 14px;&quot; face=&quot;Garamond&quot;&gt;notify domain expert&lt;/font&gt;" style="edgeLabel;html=1;align=center;verticalAlign=middle;resizable=0;points=[];" vertex="1" connectable="0" parent="3Hoj-GgrHt7AFL5flP2V-37">
          <mxGeometry x="0.8498" relative="1" as="geometry">
            <mxPoint x="-60" y="-6" as="offset" />
          </mxGeometry>
        </mxCell>
      </root>
    </mxGraphModel>
  </diagram>
</mxfile>
